<?xml version="1.0" encoding="UTF-8" standalone="no"?>
<svg
   width="50.08mm"
   height="50.08mm"
   viewBox="0 0 141.96 141.96"
   version="1.1"
   id="svg595"
   sodipodi:docname="Blink_Comparison_notification.svg"
   inkscape:version="1.1.1 (3bf5ae0d25, 2021-09-20)"
   xmlns:inkscape="http://www.inkscape.org/namespaces/inkscape"
   xmlns:sodipodi="http://sodipodi.sourceforge.net/DTD/sodipodi-0.dtd"
   xmlns="http://www.w3.org/2000/svg"
   xmlns:svg="http://www.w3.org/2000/svg">
  <sodipodi:namedview
     id="namedview597"
     pagecolor="#ffffff"
     bordercolor="#666666"
     borderopacity="1.0"
     inkscape:pageshadow="2"
     inkscape:pageopacity="0.0"
     inkscape:pagecheckerboard="0"
     inkscape:document-units="mm"
     showgrid="false"
     inkscape:zoom="1.4494889"
     inkscape:cx="52.777225"
     inkscape:cy="46.913089"
     inkscape:window-width="1920"
     inkscape:window-height="921"
     inkscape:window-x="0"
     inkscape:window-y="0"
     inkscape:window-maximized="1"
     inkscape:current-layer="svg595" />
  <defs
     id="defs5">
    <clipPath
       id="a">
      <polyline
         points="15.233 38.945 126.729 38.945 126.729 103.015 15.233 103.015 15.233 38.945"
         fill="none"
         id="polyline2" />
    </clipPath>
  </defs>
  <path
     d="m 139.58521,67.066128 v 0 A 80.939443,88.809343 0 0 0 71.58983,26.661135 H 71.085386 A 80.889,88.753994 0 0 0 3.0269425,67.97524 L 0.75063453,71.924413 2.523758,74.911891 a 80.939443,88.809343 0 0 0 67.994126,40.404969 h 0.515797 A 80.881433,88.745692 0 0 0 139.0795,73.98479 l 2.28009,-3.938102 z M 71.58983,37.730996 a 71.12673,78.04252 0 0 1 57.70975,32.438844 70.941345,77.839111 0 0 1 -58.32265,34.0758 H 70.530496 A 71.086374,77.99824 0 0 1 12.820741,71.806795 70.906035,77.800367 0 0 1 71.135831,37.730996 Z"
     fill="#ffffff"
     id="path2"
     style="stroke-width:1.321" />
  <path
     d="M 71.055117,85.945991 A 14.960981,14.960981 0 1 0 56.094136,70.986006 14.976981,14.976981 0 0 0 71.055117,85.945991 Z"
     fill="#ffffff"
     id="path4"
     style="stroke-width:0.999999" />
</svg>
