<?xml version="1.0" encoding="UTF-8" standalone="no"?>
<svg
   width="50.08mm"
   height="50.08mm"
   viewBox="0 0 141.96 141.96"
   version="1.1"
   id="svg172"
   sodipodi:docname="Blink_Comparison.svg"
   inkscape:version="1.1.1 (3bf5ae0d25, 2021-09-20)"
   xmlns:inkscape="http://www.inkscape.org/namespaces/inkscape"
   xmlns:sodipodi="http://sodipodi.sourceforge.net/DTD/sodipodi-0.dtd"
   xmlns="http://www.w3.org/2000/svg"
   xmlns:svg="http://www.w3.org/2000/svg">
  <defs
     id="defs176" />
  <sodipodi:namedview
     id="namedview174"
     pagecolor="#ffffff"
     bordercolor="#666666"
     borderopacity="1.0"
     inkscape:pageshadow="2"
     inkscape:pageopacity="0.0"
     inkscape:pagecheckerboard="0"
     inkscape:document-units="mm"
     showgrid="false"
     inkscape:zoom="4.0997735"
     inkscape:cx="91.102593"
     inkscape:cy="97.81028"
     inkscape:window-width="1920"
     inkscape:window-height="921"
     inkscape:window-x="0"
     inkscape:window-y="0"
     inkscape:window-maximized="1"
     inkscape:current-layer="svg172" />
  <g
     id="g170">
    <path
       d="M141.96,70.98c0,.81-.01,1.61-.02,2.4q-.075,5.2-.48,10.04c-.19,2.12-.42,4.19-.71,6.2-4.05,28.65-18.91,46.69-51.95,51.21-.92.13-1.85.24-2.79.34a131.282,131.282,0,0,1-13.33.78c-.56.01-1.13.01-1.7.01q-2.61,0-5.1-.09c-.12,0-.25-.01-.37-.01C16.18,140.12,0,114.27,0,70.98,0,26.13,17.37,0,70.98,0c51.1,0,69.28,23.74,70.86,64.83.02.35.03.7.04,1.05C141.93,67.55,141.96,69.25,141.96,70.98Z"
       fill="#e5e131"
       id="path2" />
    <g
       id="g168">
      <path
         d="M75.662,84.277v.912c.339-.111.672-.235,1-.369V75.346h4.176V82.23q.52-.456,1-.96V61.955h1.08q-.393-.517-.827-1H76.661V57.133q-.49-.2-1-.37v4.193H61.127V59.719q-.522.458-1,.962V74.346H56.4q.115.507.266,1h3.458v5.926q.477.5,1,.962V79.816H65.3v5.006c.328.134.66.257,1,.368V79.815h4.176v6.112c.167.006.335.009.5.009s.332,0,.5-.009V84.277Zm0-1H71.478v-7.93h4.184Zm5.175-8.929H71.478V66.416h9.359ZM70.478,78.815H61.126v-12.4h9.352Zm-9.351-13.4V61.955h19.71v3.462Z"
         fill="none"
         id="path4" />
      <line
         x1="70.915"
         y1="95.015"
         x2="70.925"
         y2="95.015"
         fill="none"
         stroke="#c0e1d5"
         stroke-linecap="round"
         stroke-linejoin="round"
         stroke-width="0"
         id="line6" />
      <path
         d="M60.127,43.1V39.924A64.264,64.264,0,0,0,48.555,43.1Z"
         fill="#709386"
         id="path8" />
      <path
         d="M86.012,43.1V40.6q-2.543-.588-5.148-.971H61.925c-.267.039-.531.08-.8.122V43.1Z"
         fill="#3c665b"
         id="path10" />
      <path
         d="M110.349,52.026a63.985,63.985,0,0,0-12.977-7.647v7.647Z"
         fill="#99a8a2"
         id="path12" />
      <path
         d="M118.089,65.417h5.353q-1.3-1.785-2.7-3.462h-2.652Z"
         fill="#99a8a2"
         id="path14" />
      <rect
         x="19.696"
         y="70.884"
         width="4.178"
         height="3.465"
         fill="#004d40"
         id="rect16" />
      <rect
         x="24.875"
         y="79.813"
         width="4.176"
         height="3.465"
         fill="#3c665b"
         id="rect18" />
      <polygon
         points="34.234 84.277 30.054 84.277 30.054 84.278 30.053 84.278 30.053 87.743 34.234 87.743 34.234 84.277"
         fill="#cad1ce"
         id="polygon20" />
      <path
         d="M96.371,92.206v-.055l-.115.055Z"
         fill="#c0e1d5"
         id="path22" />
      <path
         d="M118.089,82.091a64.933,64.933,0,0,0,4.176-5.077V75.346h-4.176Z"
         fill="#99a8a2"
         id="path24" />
      <path
         d="M54.944,97.675H50.767v2.249q2.064.663,4.177,1.188Z"
         fill="#99a8a2"
         id="path26" />
      <path
         d="M70.478,97.675H66.3v5.2q2.075.135,4.175.137Z"
         fill="#3c665b"
         id="path28" />
      <path
         d="M86.012,97.675H76.661v5.055a64.478,64.478,0,0,0,9.351-1.575Z"
         fill="#709386"
         id="path30" />
      <path
         d="M87.013,97.675V100.9a64.04,64.04,0,0,0,9.309-3.226Z"
         fill="#3c665b"
         id="path32" />
      <path
         d="M92.2,43.1h2.033c-.674-.254-1.35-.5-2.033-.729Z"
         fill="#6b857c"
         id="path34" />
      <path
         d="M34.234,50.7q-.914.645-1.8,1.323h1.8Z"
         fill="#709386"
         id="path36" />
      <path
         d="M44.585,44.749q-2.126.97-4.176,2.095v.721h4.176Z"
         fill="#004d40"
         id="path38" />
      <path
         d="M29.051,54.783q-.957.837-1.881,1.712h1.881Z"
         fill="#99a8a2"
         id="path40" />
      <path
         d="M23.874,59.853c-.331.363-.659.732-.983,1.1h.983Z"
         fill="#99a8a2"
         id="path42" />
      <path
         d="M24.875,58.781v2.175h4.176V57.494H26.138Q25.5,58.129,24.875,58.781Z"
         fill="#709386"
         id="path44" />
      <path
         d="M19.7,64.929v.491h4.179V61.955H22.038Q20.831,63.4,19.7,64.929Z"
         fill="#3c665b"
         id="path46" />
      <rect
         x="24.875"
         y="61.955"
         width="4.176"
         height="3.461"
         fill="#cad1ce"
         id="rect48" />
      <path
         d="M17.038,68.8l0,0-.684,1.082H18.7V66.42h-.072Q17.808,67.589,17.038,68.8Z"
         fill="#3c665b"
         id="path50" />
      <rect
         x="19.696"
         y="66.42"
         width="4.178"
         height="3.465"
         fill="#004d40"
         id="rect52" />
      <path
         d="M124.066,68.965l1.255-.821q-.57-.874-1.167-1.728H114.032q-.436-.506-.883-1-1.639-1.811-3.417-3.462-.547-.507-1.1-1a56.277,56.277,0,0,0-6.082-4.662c-.33-.219-.664-.435-1-.648q-2.037-1.288-4.175-2.4-.5-.258-1-.506-2.047-1.01-4.176-1.852-.5-.2-1-.385h0V42.035q-2.067-.664-4.182-1.19v8.283q-.5-.142-1-.277-.561-.148-1.124-.287-2.511-.613-5.092-1a57.055,57.055,0,0,0-8.391-.621h-.352q-2.394.015-4.75.227c-.333.029-.668.062-1,.1q-1.161.124-2.311.3-2.581.384-5.095,1a56.14,56.14,0,0,0-7.13,2.255q-.5.2-1,.4-.933.387-1.849.805-1.047.477-2.074,1a55.63,55.63,0,0,0-5.436,3.155c-.159.1-.316.209-.474.315q-.264.177-.526.358-2.157,1.486-4.176,3.178-.5.423-1,.858A56.086,56.086,0,0,0,30.05,64.97q-.206.222-.408.447l0,0c-.15.166-.3.332-.446.5l-.141.161c-.1.111-.2.226-.295.339Q27.316,68.09,26,69.885q-.363.495-.717,1c-.136.194-.271.388-.4.584l-.071.1.071.1q.993,1.375,2.059,2.681.412.505.835,1H24.875v3.465h4.176V76.8q.5.54,1,1.066.465.481.941.952c.342.338.689.673,1.039,1h-1.98v3.46h4.181v-1.5q.495.419,1,.825a56.055,56.055,0,0,0,7.578,5.144q.915.517,1.848,1a56.09,56.09,0,0,0,15.468,5.306c.332.062.666.121,1,.178q2.068.346,4.176.542c.333.031.665.059,1,.084q2.073.154,4.176.159h.437l.563-.007q2.106-.034,4.184-.22c.334-.03.666-.063,1-.1a56.539,56.539,0,0,0,8.148-1.483q1.725-.447,3.409-1A55.927,55.927,0,0,0,96.371,88.8q.5-.258,1-.527,2.139-1.155,4.175-2.493c.335-.22.669-.445,1-.673q.592-.408,1.174-.831c.45-.327.893-.66,1.333-1q2.1-1.627,4.057-3.46.525-.494,1.039-1a56.723,56.723,0,0,0,6.674-7.93c.114-.164.229-.331.342-.5-.12-.168-.242-.336-.365-.5h9.657l-1.136-1.741ZM71.478,85.928c-.165.006-.331.009-.5.009s-.336,0-.5-.009A14.9,14.9,0,0,1,66.3,85.19c-.339-.111-.671-.234-1-.368a14.969,14.969,0,0,1-4.176-2.588q-.522-.457-1-.962a14.953,14.953,0,0,1-3.458-5.926q-.15-.492-.266-1h0a14.989,14.989,0,0,1,3.725-13.665q.477-.5,1-.962a14.986,14.986,0,0,1,14.535-2.956q.508.168,1,.37a14.979,14.979,0,0,1,5.428,3.823q.435.481.827,1a14.965,14.965,0,0,1-1.08,19.315q-.477.5-1,.96a14.961,14.961,0,0,1-4.176,2.59c-.327.134-.66.258-1,.369A14.882,14.882,0,0,1,71.478,85.928Z"
         fill="#c0e1d5"
         id="path54" />
      <path
         d="M16.992,74.349h1.7V70.884H15.72l-.487.77v0l1.406,2.156C16.756,73.993,16.874,74.172,16.992,74.349Z"
         fill="#709386"
         id="path56" />
      <path
         d="M124.921,73.148l1.437-2.263h-8.269v3.461h6.052Q124.537,73.752,124.921,73.148Z"
         fill="#3c665b"
         id="path58" />
      <path
         d="M17.672,75.349q.5.726,1.024,1.435V75.349Z"
         fill="#709386"
         id="path60" />
      <path
         d="M19.7,78.111q.274.353.553.7h3.625V75.349H19.7Z"
         fill="#004d40"
         id="path62" />
      <path
         d="M23.874,79.813H21.062q1.357,1.638,2.812,3.172Z"
         fill="#6b857c"
         id="path66" />
      <path
         d="M28.891,87.743h.16V84.278H25.133Q26.947,86.09,28.891,87.743Z"
         fill="#cad1ce"
         id="path68" />
      <path
         d="M107.73,84.276v6.969q2.151-1.521,4.176-3.221V84.276Z"
         fill="#709386"
         id="path70" />
      <path
         d="M112.9,87.169q1.592-1.39,3.095-2.892H112.9Z"
         fill="#99a8a2"
         id="path72" />
      <path
         d="M34.231,91.823V88.745H30.1Q32.106,90.37,34.231,91.823Z"
         fill="#c0e1d5"
         id="path74" />
      <rect
         x="35.233"
         y="88.745"
         width="4.176"
         height="3.461"
         fill="#99a8a2"
         id="rect76" />
      <path
         d="M39.409,93.206H36.34q1.509.947,3.069,1.809Z"
         fill="#cad1ce"
         id="path78" />
      <path
         d="M45.585,97.675v.332q2.061.864,4.183,1.586V97.675Z"
         fill="#3c665b"
         id="path80" />
      <rect
         x="55.943"
         y="97.675"
         width="4.184"
         height="3.461"
         fill="#c0e1d5"
         id="rect82" />
      <path
         d="M60.127,102.136H59.9l.231.038Z"
         fill="#c0e1d5"
         id="path84" />
      <path
         d="M71.478,102.136v.872q2.1-.03,4.184-.192v-.68Z"
         fill="#709386"
         id="path86" />
      <path
         d="M65.3,44.1H46.068l-.483.208v3.262H62.992q1.149-.172,2.311-.3Z"
         fill="#004d40"
         id="path88" />
      <path
         d="M71.405,46.944a57.055,57.055,0,0,1,8.391.621h6.216V44.1H66.3v3.076q2.355-.211,4.75-.227Z"
         fill="#3c665b"
         id="path90" />
      <path
         d="M96.372,44.1H92.2v6.8q2.127.842,4.176,1.852Z"
         fill="#cad1ce"
         id="path92" />
      <path
         d="M39.409,47.4q-2.136,1.221-4.176,2.606V60.031q2.016-1.689,4.176-3.178Z"
         fill="#cad1ce"
         id="path94" />
      <path
         d="M49.768,48.564H40.409v3.462h7.51q.918-.42,1.849-.805Z"
         fill="#3c665b"
         id="path96" />
      <path
         d="M50.767,48.564v2.255a56.14,56.14,0,0,1,7.13-2.255Z"
         fill="#cad1ce"
         id="path98" />
      <path
         d="M86.012,48.564H84.888q.564.138,1.124.287Z"
         fill="#3c665b"
         id="path100" />
      <path
         d="M34.234,60.889V53.025H31.151q-.555.446-1.1.9V64.97A56.086,56.086,0,0,1,34.234,60.889Z"
         fill="#6b857c"
         id="path102" />
      <path
         d="M40.409,53.025V56.18a55.63,55.63,0,0,1,5.436-3.155Z"
         fill="#6b857c"
         id="path104" />
      <path
         d="M101.547,53.025H97.372v.224q2.138,1.108,4.175,2.4Z"
         fill="#709386"
         id="path106" />
      <path
         d="M119.888,60.956a64.266,64.266,0,0,0-8.26-7.931h-9.082v3.269a56.277,56.277,0,0,1,6.082,4.662Z"
         fill="#6b857c"
         id="path108" />
      <path
         d="M113.149,65.417h3.94V61.955h-7.356Q111.507,63.605,113.149,65.417Z"
         fill="#99a8a2"
         id="path110" />
      <path
         d="M24.875,66.42v3.465H26q1.32-1.8,2.76-3.465Z"
         fill="#3c665b"
         id="path112" />
      <path
         d="M24.875,74.349h2.059q-1.065-1.305-2.059-2.681Z"
         fill="#709386"
         id="path114" />
      <path
         d="M24.875,70.884v.584c.133-.2.268-.39.4-.584Z"
         fill="#709386"
         id="path116" />
      <path
         d="M30.053,78.815h.941q-.477-.471-.941-.952Z"
         fill="#004d40"
         id="path118" />
      <path
         d="M35.233,87.745h7.578A56.055,56.055,0,0,1,35.233,82.6Z"
         fill="#6b857c"
         id="path120" />
      <path
         d="M117.089,78.815v-7.93h-.266a56.723,56.723,0,0,1-6.674,7.93Z"
         fill="#6b857c"
         id="path122" />
      <path
         d="M61.127,102.329q2.073.3,4.176.473V94.771q-2.1-.194-4.176-.542Z"
         fill="#6b857c"
         id="path124" />
      <path
         d="M66.3,96.676h4.176V95.014q-2.1,0-4.176-.159Z"
         fill="#709386"
         id="path126" />
      <path
         d="M116.98,83.276l.109-.114V79.816H109.11q-1.951,1.83-4.057,3.46Z"
         fill="#709386"
         id="path128" />
      <path
         d="M71.478,101.136h4.184V94.788q-2.076.184-4.184.22Z"
         fill="#3c665b"
         id="path130" />
      <path
         d="M97.372,96.676h1.133c1.026-.494,2.043-1.017,3.042-1.565v-9.33q-2.032,1.336-4.175,2.493Z"
         fill="#6b857c"
         id="path132" />
      <path
         d="M102.546,94.552q2.14-1.226,4.185-2.614V84.277H103.72q-.582.423-1.174.831Z"
         fill="#99a8a2"
         id="path134" />
      <path
         d="M40.409,88.745v6.811q1.1.581,2.217,1.12h17.5V94.051a56.09,56.09,0,0,1-15.468-5.306Z"
         fill="#3c665b"
         id="path136" />
      <path
         d="M96.256,92.206l.115-.055V88.8a55.927,55.927,0,0,1-8.153,3.405Z"
         fill="#99a8a2"
         id="path138" />
      <path
         d="M76.661,96.676H96.372v-3.47H84.809a56.539,56.539,0,0,1-8.148,1.483Z"
         fill="#004d40"
         id="path140" />
      <path
         d="M76.661,60.956h5.428a14.979,14.979,0,0,0-5.428-3.823Z"
         fill="#3c665b"
         id="path142" />
      <rect
         x="61.127"
         y="61.955"
         width="19.709"
         height="3.461"
         fill="#004d40"
         id="rect144" />
      <rect
         x="71.478"
         y="66.416"
         width="9.359"
         height="7.931"
         fill="#3c665b"
         id="rect146" />
      <path
         d="M60.127,74.346V60.681A14.989,14.989,0,0,0,56.4,74.346Z"
         fill="#709386"
         id="path148" />
      <path
         d="M60.127,75.346H56.669a14.953,14.953,0,0,0,3.458,5.926Z"
         fill="#cad1ce"
         id="path150" />
      <rect
         x="61.126"
         y="66.416"
         width="9.352"
         height="12.399"
         fill="#3c665b"
         id="rect152" />
      <rect
         x="71.478"
         y="75.346"
         width="4.184"
         height="7.93"
         fill="#6b857c"
         id="rect154" />
      <path
         d="M80.837,75.346H76.661V84.82a14.961,14.961,0,0,0,4.176-2.59Z"
         fill="#709386"
         id="path156" />
      <path
         d="M65.3,79.816H61.127v2.418A14.969,14.969,0,0,0,65.3,84.822Z"
         fill="#6b857c"
         id="path158" />
      <path
         d="M70.478,79.816H66.3V85.19a14.9,14.9,0,0,0,4.176.738Z"
         fill="#709386"
         id="path160" />
      <path
         d="M75.662,60.956V56.763a14.986,14.986,0,0,0-14.535,2.956v1.237Z"
         fill="#cad1ce"
         id="path162" />
      <path
         d="M81.836,81.27a14.965,14.965,0,0,0,1.08-19.315h-1.08Z"
         fill="#6b857c"
         id="path164" />
      <path
         d="M75.662,84.277H71.478v1.651a14.882,14.882,0,0,0,4.184-.739Z"
         fill="#3c665b"
         id="path166" />
    </g>
  </g>
</svg>
